<svg width="127" height="22" viewBox="0 0 127 22" fill="none" xmlns="http://www.w3.org/2000/svg">
<g clip-path="url(#clip0_102_2)">
<path d="M53.87 3H56.74V9.06H56.82C57.22 8.21 58.05 7.16 59.83 7.16C62.16 7.16 64.1 8.96 64.11 12.57C64.1 16.09 62.23 17.99 59.83 17.99C58.12 17.99 57.24 17 56.82 16.13H56.7V17.81H53.87V3ZM58.91 15.71C60.37 15.7 61.17 14.41 61.16 12.55C61.17 10.72 60.4 9.45 58.91 9.45C57.42 9.45 56.67 10.66 56.68 12.55C56.68 14.45 57.5 15.7 58.91 15.71Z" fill="#221F20"/>
<path d="M67.37 3C68.22 3.01 68.93 3.66 68.92 4.47C68.93 5.26 68.23 5.92 67.37 5.92C66.51 5.92 65.8 5.26 65.8 4.47C65.8 3.68 66.51 3.01 67.37 3ZM65.94 7.3H68.81V17.82H65.94V7.3Z" fill="#221F20"/>
<path d="M76.94 9.45027H74.96V14.5803C74.95 15.4203 75.37 15.6203 75.95 15.6503C76.24 15.6503 76.74 15.6203 77.09 15.5903V17.8603C76.78 17.9103 76.27 17.9703 75.56 17.9603C73.49 17.9703 72.08 17.0403 72.09 15.0003V9.46027H70.64V7.31027H72.09V4.78027H74.96V7.30027H76.94V9.45027Z" fill="#221F20"/>
<path d="M85.6 14.49H85.73L89.16 3H92.38L87.53 17.82H83.79L78.94 3H82.19L85.6 14.48V14.49Z" fill="#221F20"/>
<path d="M39.54 13.4002L42.09 8.98023L39.5 4.48023C38.68 3.07023 36.88 2.59023 35.47 3.40023C34.07 4.21023 33.58 6.01023 34.39 7.42023L39.44 16.1502C39.03 15.3002 39.04 14.2802 39.54 13.4002Z" fill="url(#paint0_linear_102_2)"/>
<path d="M48.72 3.40023C47.31 2.59023 45.51 3.07023 44.7 4.48023L42.1 8.98023C42.1 8.98023 40.81 10.8602 39.91 11.2502C39.04 11.6302 37.98 11.5902 37.35 11.2602C36.68 10.9102 35.71 9.66023 35.71 9.66023L39.45 16.1502L39.56 16.3402C40.14 17.3502 41.24 17.8902 42.32 17.8002C42.35 17.8002 42.38 17.8002 42.41 17.7902C42.42 17.7902 42.44 17.7902 42.45 17.7902C43.34 17.6802 44.17 17.1802 44.65 16.3402L44.75 16.1602L49.8 7.41023C50.61 6.00023 50.13 4.21023 48.72 3.39023V3.40023Z" fill="url(#paint1_linear_102_2)"/>
</g>
<defs>
<linearGradient id="paint0_linear_102_2" x1="38.05" y1="3.00023" x2="38.05" y2="16.1502" gradientUnits="userSpaceOnUse">
<stop stop-color="#00B255"/>
<stop offset="1" stop-color="#3663FF"/>
</linearGradient>
<linearGradient id="paint1_linear_102_2" x1="38.26" y1="14.1102" x2="51.08" y2="6.70023" gradientUnits="userSpaceOnUse">
<stop stop-color="#00B255"/>
<stop offset="0.13" stop-color="#02B05A"/>
<stop offset="0.28" stop-color="#07A86A"/>
<stop offset="0.46" stop-color="#0F9D83"/>
<stop offset="0.64" stop-color="#1A8CA6"/>
<stop offset="0.84" stop-color="#2878D3"/>
<stop offset="1" stop-color="#3663FF"/>
</linearGradient>
<clipPath id="clip0_102_2">
<rect width="58.39" height="15" fill="white" transform="translate(34 3)"/>
</clipPath>
</defs>
</svg>
